HIERARCHY
ROOT newVegas:Hips
{
	OFFSET 0.000000 96.479958 0.000000
	CHANNELS 6 Xposition Yposition Zposition Xrotation Yrotation Zrotation
	JOINT newVegas:Pelvis
	{
		OFFSET 0.000000 0.000000 0.000000
		CHANNELS 3 Xrotation Yrotation Zrotation
		JOINT newVegas:LeftUpLeg
		{
			OFFSET 18.735201 -5.666702 -4.541200
			CHANNELS 3 Xrotation Yrotation Zrotation
			JOINT newVegas:LeftLeg
			{
				OFFSET -0.021200 -31.938179 0.493100
				CHANNELS 3 Xrotation Yrotation Zrotation
				JOINT newVegas:LeftFoot
				{
					OFFSET 0.021200 -31.938179 -4.336299
					CHANNELS 3 Xrotation Yrotation Zrotation
					JOINT newVegas:LeftToeBase
					{
						OFFSET 0.943001 -26.722000 15.023500
						CHANNELS 3 Xrotation Yrotation Zrotation
						End Site
						{
							OFFSET 0.000000 30.670183 0.000000
						}
					}
				}
				JOINT newVegas:Left_PantLeg
				{
					OFFSET 0.663870 -9.044666 -1.108900
					CHANNELS 3 Xrotation Yrotation Zrotation
					End Site
					{
						OFFSET 1.415995 20.635357 0.000000
					}
				}
			}
		}
		JOINT newVegas:RightUpLeg
		{
			OFFSET -18.735201 -5.666702 -4.541200
			CHANNELS 3 Xrotation Yrotation Zrotation
			JOINT newVegas:RightLeg
			{
				OFFSET 0.018946 -31.938133 0.493100
				CHANNELS 3 Xrotation Yrotation Zrotation
				JOINT newVegas:RightFoot
				{
					OFFSET -0.018946 -31.938126 -4.336299
					CHANNELS 3 Xrotation Yrotation Zrotation
					JOINT newVegas:RightToeBase
					{
						OFFSET -0.943001 -26.722004 15.023500
						CHANNELS 3 Xrotation Yrotation Zrotation
						End Site
						{
							OFFSET 0.000000 30.670187 0.000000
						}
					}
				}
				JOINT newVegas:Right_PantLeg
				{
					OFFSET -0.661674 -9.044716 -1.108900
					CHANNELS 3 Xrotation Yrotation Zrotation
					End Site
					{
						OFFSET -1.415958 20.635269 0.000000
					}
				}
			}
		}
	}
	JOINT newVegas:Spine
	{
		OFFSET 0.000000 10.199997 -0.299500
		CHANNELS 3 Xrotation Yrotation Zrotation
		JOINT newVegas:Spine1
		{
			OFFSET 0.000000 11.900002 -1.516600
			CHANNELS 3 Xrotation Yrotation Zrotation
			JOINT newVegas:Spine2
			{
				OFFSET 0.000000 13.600006 -2.842500
				CHANNELS 3 Xrotation Yrotation Zrotation
				JOINT newVegas:Neck
				{
					OFFSET 0.000000 9.624100 -2.890100
					CHANNELS 3 Xrotation Yrotation Zrotation
					JOINT newVegas:Head
					{
						OFFSET 0.000000 14.068802 -1.351900
						CHANNELS 3 Xrotation Yrotation Zrotation
						JOINT newVegas:Hair_Back
						{
							OFFSET 0.000000 3.231903 -17.524799
							CHANNELS 3 Xrotation Yrotation Zrotation
							End Site
							{
								OFFSET 0.000000 19.849884 0.000000
							}
						}
						JOINT newVegas:Hair_Front
						{
							OFFSET 0.000000 31.260406 4.573800
							CHANNELS 3 Xrotation Yrotation Zrotation
							JOINT newVegas:Hair_Front1
							{
								OFFSET 0.000000 2.284103 11.993300
								CHANNELS 3 Xrotation Yrotation Zrotation
								JOINT newVegas:Hair_Front2
								{
									OFFSET 0.000000 2.284103 11.993300
									CHANNELS 3 Xrotation Yrotation Zrotation
									End Site
									{
										OFFSET 0.000000 12.208862 0.000000
									}
								}
							}
						}
						JOINT newVegas:Jowel
						{
							OFFSET 0.000000 -7.458206 6.864100
							CHANNELS 3 Xrotation Yrotation Zrotation
							End Site
							{
								OFFSET 0.000000 19.849884 0.000000
							}
						}
					}
				}
				JOINT newVegas:LeftShoulder
				{
					OFFSET 15.263000 10.923401 -0.547700
					CHANNELS 3 Xrotation Yrotation Zrotation
					JOINT newVegas:LeftArm
					{
						OFFSET 25.438599 -2.830597 -13.032500
						CHANNELS 3 Xrotation Yrotation Zrotation
						JOINT newVegas:LeftForeArm
						{
							OFFSET 29.960503 0.000000 0.000000
							CHANNELS 3 Xrotation Yrotation Zrotation
							JOINT newVegas:LeftHand
							{
								OFFSET 27.849251 0.000000 0.000000
								CHANNELS 3 Xrotation Yrotation Zrotation
								JOINT newVegas:LeftHandThumb1
								{
									OFFSET 4.487587 -3.305161 6.305391
									CHANNELS 3 Xrotation Yrotation Zrotation
									JOINT newVegas:LeftHandThumb2
									{
										OFFSET 5.480453 -3.164139 3.164143
										CHANNELS 3 Xrotation Yrotation Zrotation
										JOINT newVegas:LeftHandThumb3
										{
											OFFSET 5.159721 -2.978973 2.978967
											CHANNELS 3 Xrotation Yrotation Zrotation
											End Site
											{
												OFFSET 2.494507 5.926697 1.738678
											}
										}
									}
								}
								JOINT newVegas:LeftHandIndex1
								{
									OFFSET 18.578728 -0.527832 5.208049
									CHANNELS 3 Xrotation Yrotation Zrotation
									JOINT newVegas:LeftHandIndex2
									{
										OFFSET 3.192009 0.000000 0.000000
										CHANNELS 3 Xrotation Yrotation Zrotation
										JOINT newVegas:LeftHandIndex3
										{
											OFFSET 3.835129 0.000000 0.000000
											CHANNELS 3 Xrotation Yrotation Zrotation
											End Site
											{
												OFFSET -0.034599 3.816971 0.371180
											}
										}
									}
								}
								JOINT newVegas:LeftHandMiddle1
								{
									OFFSET 18.476105 0.000000 0.000000
									CHANNELS 3 Xrotation Yrotation Zrotation
									JOINT newVegas:LeftHandMiddle2
									{
										OFFSET 3.324875 0.000000 0.000000
										CHANNELS 3 Xrotation Yrotation Zrotation
										JOINT newVegas:LeftHandMiddle3
										{
											OFFSET 4.596550 0.000000 0.000000
											CHANNELS 3 Xrotation Yrotation Zrotation
											End Site
											{
												OFFSET 0.057701 4.578827 0.399218
											}
										}
									}
								}
								JOINT newVegas:LeftHandRing1
								{
									OFFSET 17.732719 0.121887 -4.201567
									CHANNELS 3 Xrotation Yrotation Zrotation
									JOINT newVegas:LeftHandRing2
									{
										OFFSET 2.733170 0.000000 0.000000
										CHANNELS 3 Xrotation Yrotation Zrotation
										JOINT newVegas:LeftHandRing3
										{
											OFFSET 3.178268 0.000000 0.000000
											CHANNELS 3 Xrotation Yrotation Zrotation
											End Site
											{
												OFFSET 0.119102 3.170624 0.185394
											}
										}
									}
								}
								JOINT newVegas:LeftHandPinky1
								{
									OFFSET 15.989624 -0.606689 -7.535461
									CHANNELS 3 Xrotation Yrotation Zrotation
									JOINT newVegas:LeftHandPinky2
									{
										OFFSET 2.538986 0.000000 0.000000
										CHANNELS 3 Xrotation Yrotation Zrotation
										JOINT newVegas:LeftHandPinky3
										{
											OFFSET 2.593102 0.000000 0.000000
											CHANNELS 3 Xrotation Yrotation Zrotation
											End Site
											{
												OFFSET -0.150902 2.584198 0.152708
											}
										}
									}
								}
							}
							JOINT newVegas:Left_Sleeve
							{
								OFFSET 0.267448 -0.649796 0.577675
								CHANNELS 3 Xrotation Yrotation Zrotation
								End Site
								{
									OFFSET 0.000000 15.991241 0.000000
								}
							}
							JOINT newVegas:Left_CapeC
							{
								OFFSET 15.715958 -8.608795 -6.935905
								CHANNELS 3 Xrotation Yrotation Zrotation
								JOINT newVegas:Left_CapeC1
								{
									OFFSET 0.000000 -8.688499 0.000000
									CHANNELS 3 Xrotation Yrotation Zrotation
									End Site
									{
										OFFSET 0.000000 8.688499 0.000000
									}
								}
							}
						}
						JOINT newVegas:Left_CapeB
						{
							OFFSET 26.118385 -8.608795 -7.079235
							CHANNELS 3 Xrotation Yrotation Zrotation
							JOINT newVegas:Left_CapeB1
							{
								OFFSET 0.000000 -8.688499 0.000000
								CHANNELS 3 Xrotation Yrotation Zrotation
								End Site
								{
									OFFSET 0.000000 8.688499 0.000000
								}
							}
						}
						JOINT newVegas:Left_CapeA
						{
							OFFSET 5.115639 -8.608795 -10.395809
							CHANNELS 3 Xrotation Yrotation Zrotation
							JOINT newVegas:Left_CapeA1
							{
								OFFSET 0.000000 -8.688499 0.000000
								CHANNELS 3 Xrotation Yrotation Zrotation
								End Site
								{
									OFFSET 0.000000 8.688499 0.000000
								}
							}
						}
					}
				}
				JOINT newVegas:RightShoulder
				{
					OFFSET -15.263000 10.923401 -0.547700
					CHANNELS 3 Xrotation Yrotation Zrotation
					JOINT newVegas:RightArm
					{
						OFFSET -25.438599 -2.830597 -13.032500
						CHANNELS 3 Xrotation Yrotation Zrotation
						JOINT newVegas:RightForeArm
						{
							OFFSET -29.960503 0.000000 0.000000
							CHANNELS 3 Xrotation Yrotation Zrotation
							JOINT newVegas:RightHand
							{
								OFFSET -27.849251 0.000000 0.000000
								CHANNELS 3 Xrotation Yrotation Zrotation
								JOINT newVegas:RightHandThumb1
								{
									OFFSET -4.487587 -3.305161 6.305391
									CHANNELS 3 Xrotation Yrotation Zrotation
									JOINT newVegas:RightHandThumb2
									{
										OFFSET -5.480453 -3.164139 3.164143
										CHANNELS 3 Xrotation Yrotation Zrotation
										JOINT newVegas:RightHandThumb3
										{
											OFFSET -5.159721 -2.978973 2.978967
											CHANNELS 3 Xrotation Yrotation Zrotation
											End Site
											{
												OFFSET -2.494507 5.926697 1.738678
											}
										}
									}
								}
								JOINT newVegas:RightHandIndex1
								{
									OFFSET -18.578728 -0.527832 5.208049
									CHANNELS 3 Xrotation Yrotation Zrotation
									JOINT newVegas:RightHandIndex2
									{
										OFFSET -3.192009 0.000000 0.000000
										CHANNELS 3 Xrotation Yrotation Zrotation
										JOINT newVegas:RightHandIndex3
										{
											OFFSET -3.835129 0.000000 0.000000
											CHANNELS 3 Xrotation Yrotation Zrotation
											End Site
											{
												OFFSET 0.034599 3.816971 0.371180
											}
										}
									}
								}
								JOINT newVegas:RightHandMiddle1
								{
									OFFSET -18.476105 0.000000 0.000000
									CHANNELS 3 Xrotation Yrotation Zrotation
									JOINT newVegas:RightHandMiddle2
									{
										OFFSET -3.324875 0.000000 0.000000
										CHANNELS 3 Xrotation Yrotation Zrotation
										JOINT newVegas:RightHandMiddle3
										{
											OFFSET -4.596550 0.000000 0.000000
											CHANNELS 3 Xrotation Yrotation Zrotation
											End Site
											{
												OFFSET -0.057701 4.578827 0.399218
											}
										}
									}
								}
								JOINT newVegas:RightHandRing1
								{
									OFFSET -17.732719 0.121887 -4.201567
									CHANNELS 3 Xrotation Yrotation Zrotation
									JOINT newVegas:RightHandRing2
									{
										OFFSET -2.733170 0.000000 0.000000
										CHANNELS 3 Xrotation Yrotation Zrotation
										JOINT newVegas:RightHandRing3
										{
											OFFSET -3.178268 0.000000 0.000000
											CHANNELS 3 Xrotation Yrotation Zrotation
											End Site
											{
												OFFSET -0.119102 3.170624 0.185394
											}
										}
									}
								}
								JOINT newVegas:RightHandPinky1
								{
									OFFSET -15.989624 -0.606689 -7.535461
									CHANNELS 3 Xrotation Yrotation Zrotation
									JOINT newVegas:RightHandPinky2
									{
										OFFSET -2.538986 0.000000 0.000000
										CHANNELS 3 Xrotation Yrotation Zrotation
										JOINT newVegas:RightHandPinky3
										{
											OFFSET -2.593102 0.000000 0.000000
											CHANNELS 3 Xrotation Yrotation Zrotation
											End Site
											{
												OFFSET 0.150902 2.584198 0.152708
											}
										}
									}
								}
							}
							JOINT newVegas:Right_CapeC
							{
								OFFSET -15.715958 -8.608795 -6.935905
								CHANNELS 3 Xrotation Yrotation Zrotation
								JOINT newVegas:Right_CapeC1
								{
									OFFSET 0.000000 -8.688499 0.000000
									CHANNELS 3 Xrotation Yrotation Zrotation
									End Site
									{
										OFFSET 0.000000 8.688499 0.000000
									}
								}
							}
							JOINT newVegas:Right_Sleeve
							{
								OFFSET -0.267448 -0.649994 0.577675
								CHANNELS 3 Xrotation Yrotation Zrotation
								End Site
								{
									OFFSET 0.000000 15.991302 0.000000
								}
							}
						}
						JOINT newVegas:Right_CapeA
						{
							OFFSET -5.115540 -8.608795 -10.395824
							CHANNELS 3 Xrotation Yrotation Zrotation
							JOINT newVegas:Right_CapeA1
							{
								OFFSET 0.000000 -8.688499 0.000000
								CHANNELS 3 Xrotation Yrotation Zrotation
								End Site
								{
									OFFSET 0.000000 8.688499 0.000000
								}
							}
						}
						JOINT newVegas:Right_CapeB
						{
							OFFSET -26.118187 -8.608795 -7.079266
							CHANNELS 3 Xrotation Yrotation Zrotation
							JOINT newVegas:Right_CapeB1
							{
								OFFSET 0.000000 -8.688499 0.000000
								CHANNELS 3 Xrotation Yrotation Zrotation
								End Site
								{
									OFFSET 0.000000 8.688499 0.000000
								}
							}
						}
					}
				}
				JOINT newVegas:Left_Collar
				{
					OFFSET 18.625099 8.655502 8.828100
					CHANNELS 3 Xrotation Yrotation Zrotation
					JOINT newVegas:Left_Collar1
					{
						OFFSET 14.783401 10.540405 -1.259500
						CHANNELS 3 Xrotation Yrotation Zrotation
						End Site
						{
							OFFSET 0.000000 18.199875 0.000000
						}
					}
				}
				JOINT newVegas:Collar_Back
				{
					OFFSET 0.000000 15.630707 -20.132601
					CHANNELS 3 Xrotation Yrotation Zrotation
					End Site
					{
						OFFSET 0.000000 22.523010 0.000000
					}
				}
				JOINT newVegas:Left_Peck
				{
					OFFSET 17.239599 -5.132599 25.482599
					CHANNELS 3 Xrotation Yrotation Zrotation
					End Site
					{
						OFFSET 0.000000 22.523010 0.000000
					}
				}
				JOINT newVegas:Right_Peck
				{
					OFFSET -17.239599 -5.132202 25.482599
					CHANNELS 3 Xrotation Yrotation Zrotation
					End Site
					{
						OFFSET 0.000000 22.523010 0.000000
					}
				}
				JOINT newVegas:Right_Collar
				{
					OFFSET -18.625099 8.655792 8.828100
					CHANNELS 3 Xrotation Yrotation Zrotation
					JOINT newVegas:Right_Collar1
					{
						OFFSET -14.783401 10.539993 -1.259500
						CHANNELS 3 Xrotation Yrotation Zrotation
						End Site
						{
							OFFSET 0.000000 18.199631 0.000000
						}
					}
				}
			}
		}
		JOINT newVegas:Belly
		{
			OFFSET 0.000000 -6.540398 9.014299
			CHANNELS 3 Xrotation Yrotation Zrotation
			End Site
			{
				OFFSET 0.000000 11.566666 0.000000
			}
		}
	}
	JOINT newVegas:ElvisFacialAnim_Joint
	{
		OFFSET 1.000000 -95.330101 -8.825800
		CHANNELS 3 Xrotation Yrotation Zrotation
		End Site
		{
			OFFSET 0.000000 35.315800 0.000000
		}
	}
}
MOTION
Frames: 4
Frame Time: 0.016667
-31.830387 48.996780 271.838654 189.995386 13.711458 -177.238956 -0.000000 0.000001 -0.000000 -109.045807 -6.615616 36.995662 111.280037 -1.720405 -3.704295 11.912220 -8.683419 12.239556 0.000000 -0.000001 0.000000 -0.000001 0.000001 0.000001 -116.883333 10.950147 -12.946002 115.582947 -7.541203 2.222610 11.139268 1.554935 -16.467549 0.000001 -0.000001 0.000000 0.000001 -0.000001 0.000000 16.790733 -3.841310 -8.994209 3.969197 -0.741152 -2.119500 3.979509 -0.739454 -2.101521 0.364753 0.074949 0.061869 0.364755 0.074955 0.061867 0.000002 -0.000000 -0.000000 0.364751 0.074946 0.061868 0.364743 0.074954 0.061871 -0.000001 0.000000 -0.000000 0.000002 -0.000000 -0.000001 1.384114 -5.715089 -11.757634 -18.360580 -40.146220 -47.046124 -0.000007 -56.855468 -0.000010 40.891885 -11.279950 -14.873589 -9.353693 -4.410879 -1.012471 21.377768 38.831152 0.008458 0.000003 -0.000006 -0.000009 1.241275 5.556499 -31.143726 2.581737 4.855100 -55.983912 -0.000005 -0.000001 -0.000000 2.333433 7.138656 -41.308229 3.977862 5.544092 -71.298132 0.000002 0.000001 0.000005 2.817955 7.449807 -47.416611 3.975397 5.543253 -71.272409 0.000000 0.000003 -0.000001 2.416440 7.232789 -41.295515 3.976806 5.543721 -71.287094 0.000000 0.000000 -0.000003 0.000000 0.000001 0.000000 0.000000 0.000001 0.000000 -0.000000 0.000001 0.000000 -0.000004 -0.000001 0.000001 -0.000004 -0.000002 0.000002 -0.000004 -0.000001 0.000001 -0.000005 -0.000002 0.000001 -4.126462 21.353058 -2.025798 -21.913716 29.410771 24.489288 0.000053 107.646411 -0.000044 -60.125827 14.340467 -11.279280 49.904524 33.562464 -17.441699 11.431389 -12.158979 7.800706 0.000003 0.000001 0.000001 0.249889 -3.804218 14.940632 2.023884 -3.842592 55.538703 0.000000 -0.000001 0.000001 1.128255 -5.542188 26.437082 1.145652 -3.061060 41.030285 -0.000001 0.000001 -0.000001 1.283865 -5.672052 29.821890 1.502268 -3.427468 47.325257 0.000001 0.000002 0.000000 1.244966 -5.502228 26.494323 0.986039 -2.867607 37.944665 0.000001 -0.000004 -0.000001 -0.000001 0.000001 -0.000001 -0.000001 -0.000002 -0.000000 -0.000001 0.000001 -0.000001 0.000000 -0.000001 -0.000001 0.000000 0.000000 -0.000002 0.000000 -0.000001 -0.000001 0.000000 -0.000000 -0.000002 0.000001 -0.000001 -0.000001 0.000001 -0.000001 -0.000001 0.000001 -0.000001 -0.000001 0.000001 -0.000001 -0.000001 0.000001 -0.000001 -0.000001 0.000001 -0.000001 -0.000001 0.000001 -0.000001 -0.000001 -0.000001 0.000001 0.000001 -0.000000 0.000001 -0.000000 
-31.822552 48.993340 271.837280 189.951946 13.712902 -177.241046 -0.000001 -0.000001 -0.000000 -109.085463 -6.651415 36.964417 111.281888 -1.723487 -3.702932 11.913481 -8.662791 12.210952 0.000000 0.000001 -0.000000 0.000001 0.000001 -0.000001 -116.916351 10.929574 -12.955820 115.579751 -7.542308 2.229283 11.145651 1.553805 -16.475851 0.000000 -0.000003 -0.000000 -0.000000 -0.000002 -0.000002 16.778404 -3.827480 -8.978759 3.960997 -0.736599 -2.125366 3.971173 -0.734086 -2.108094 0.364184 0.070162 0.071548 0.364191 0.070149 0.071547 0.000001 0.000001 -0.000001 0.364209 0.070112 0.071558 0.364191 0.070208 0.071539 -0.000001 0.000001 -0.000000 0.000001 0.000001 -0.000000 1.385423 -5.719501 -11.741862 -18.383990 -40.127334 -47.070570 -0.000004 -56.804843 0.000003 40.970449 -11.176341 -14.771734 -9.625155 -4.324135 -1.515796 21.379076 38.837583 0.008471 0.000002 -0.000002 -0.000001 1.241006 5.556780 -31.144051 2.581807 4.855164 -55.984902 0.000000 -0.000002 -0.000002 2.333957 7.139067 -41.314585 3.978628 5.544341 -71.305911 -0.000004 0.000001 0.000001 2.846261 7.466662 -47.739891 3.975199 5.543201 -71.270469 -0.000001 -0.000002 -0.000003 2.416454 7.232802 -41.296031 3.978153 5.544172 -71.301021 -0.000002 -0.000005 -0.000002 0.000001 -0.000003 -0.000003 0.000001 -0.000003 -0.000003 0.000000 -0.000003 -0.000003 0.000001 -0.000002 0.000002 0.000001 -0.000003 0.000002 0.000001 -0.000002 0.000002 0.000000 -0.000001 0.000002 -4.269427 21.023295 -2.430175 -22.824064 29.584292 24.643077 -0.000042 108.149536 0.000045 -60.083924 15.273707 -11.131783 49.905115 33.561316 -17.441684 11.433884 -12.159229 7.799874 -0.000000 -0.000003 0.000001 0.250026 -3.804666 14.942278 2.024050 -3.842689 55.541025 0.000003 0.000000 -0.000000 1.128551 -5.542705 26.438807 1.145711 -3.061163 41.031767 0.000001 0.000001 0.000003 1.283035 -5.670572 29.822453 1.502285 -3.427520 47.325927 -0.000001 0.000002 0.000003 1.248095 -5.501255 26.496578 0.986109 -2.867732 37.946362 -0.000001 -0.000002 0.000000 0.000001 0.000000 0.000001 0.000001 -0.000000 0.000001 0.000001 -0.000000 0.000001 0.000001 0.000003 0.000001 0.000001 0.000003 0.000001 0.000001 0.000003 0.000001 0.000001 0.000004 0.000001 0.000001 0.000002 -0.000000 0.000001 0.000002 -0.000000 0.000001 0.000002 -0.000000 0.000001 0.000002 -0.000000 0.000001 0.000002 -0.000000 0.000001 0.000002 -0.000000 0.000001 0.000002 -0.000000 -0.000000 -0.000001 -0.000000 -0.000001 -0.000001 -0.000000 
-31.812571 48.996201 271.837006 189.944474 13.723392 -177.245922 0.000001 -0.000000 -0.000000 -109.086952 -6.664347 36.935669 111.278815 -1.729045 -3.700185 11.915507 -8.640482 12.222110 -0.000000 -0.000000 -0.000000 0.000001 0.000000 -0.000000 -116.917361 10.898121 -12.964369 115.579532 -7.537355 2.235389 11.121421 1.552955 -16.496184 -0.000000 -0.000000 0.000001 0.000000 0.000004 -0.000001 16.769361 -3.814943 -8.964931 3.953006 -0.732006 -2.129828 3.963048 -0.728871 -2.113283 0.363427 0.065776 0.081837 0.363431 0.065783 0.081834 0.000000 0.000000 0.000000 0.363430 0.065778 0.081835 0.363430 0.065780 0.081837 -0.000000 0.000001 -0.000001 0.000000 0.000000 0.000000 1.385775 -5.726419 -11.728834 -18.401730 -40.104286 -47.092764 0.000014 -56.770780 0.000016 41.050571 -11.060303 -14.665980 -9.875560 -4.238455 -2.020552 21.379098 38.837548 0.008478 0.000002 -0.000004 -0.000008 1.240743 5.557035 -31.144433 2.581920 4.855227 -55.986016 -0.000003 -0.000001 -0.000000 2.334242 7.139287 -41.318055 3.978881 5.544430 -71.308616 0.000000 0.000001 -0.000000 2.874039 7.483002 -48.056186 3.975065 5.543138 -71.268871 -0.000002 -0.000001 0.000002 2.416471 7.232800 -41.296553 3.978208 5.544199 -71.301567 0.000001 0.000000 -0.000003 -0.000001 -0.000000 -0.000003 -0.000001 -0.000000 -0.000003 -0.000002 -0.000001 -0.000003 -0.000001 -0.000001 0.000001 -0.000001 -0.000002 0.000002 -0.000001 -0.000001 0.000001 -0.000002 -0.000000 0.000001 -4.382719 20.715689 -2.732459 -23.680770 29.747871 24.695003 -0.000005 108.551910 0.000005 -59.952641 16.384386 -10.966991 49.905747 33.560196 -17.441742 11.436402 -12.159721 7.799028 -0.000000 -0.000002 -0.000001 0.250155 -3.805106 14.943873 2.024209 -3.842784 55.543310 -0.000000 -0.000000 -0.000003 1.128868 -5.543218 26.440516 1.145790 -3.061256 41.033338 -0.000002 0.000001 -0.000000 1.282239 -5.669138 29.823471 1.502369 -3.427555 47.327006 0.000001 0.000002 0.000001 1.251213 -5.500315 26.498830 0.986215 -2.867818 37.947968 -0.000003 0.000002 -0.000001 0.000000 0.000007 0.000001 0.000000 0.000001 0.000000 0.000000 0.000007 0.000001 -0.000000 -0.000003 -0.000001 -0.000000 -0.000003 -0.000002 -0.000000 -0.000003 -0.000001 -0.000000 -0.000003 -0.000001 -0.000000 -0.000001 0.000001 -0.000000 -0.000001 0.000001 -0.000000 -0.000001 0.000001 -0.000000 -0.000001 0.000001 -0.000000 -0.000001 0.000001 -0.000000 -0.000001 0.000001 -0.000000 -0.000001 0.000001 -0.000000 0.000002 -0.000000 0.000001 -0.000000 -0.000000 
-31.801632 48.997398 271.830902 189.933777 13.735203 -177.248422 0.000000 -0.000001 -0.000000 -109.073920 -6.709873 36.922883 111.280140 -1.746984 -3.699160 11.915522 -8.622109 12.162505 -0.000000 0.000001 -0.000000 0.000000 -0.000001 0.000002 -116.919971 10.873201 -12.974171 115.573030 -7.528642 2.242510 11.114887 1.551067 -16.514701 0.000000 -0.000002 -0.000001 0.000000 0.000001 -0.000001 16.760746 -3.807706 -8.950472 3.944885 -0.728170 -2.131930 3.954814 -0.724027 -2.115638 0.362676 0.062547 0.092729 0.362667 0.062540 0.092730 0.000002 -0.000003 0.000001 0.362670 0.062548 0.092733 0.362744 0.062559 0.092727 -0.000001 -0.000001 -0.000001 0.000002 -0.000003 0.000000 1.385082 -5.737305 -11.717948 -18.413628 -40.072382 -47.113060 -0.000010 -56.750860 -0.000021 41.115324 -10.949199 -14.571604 -10.109462 -4.152936 -2.519852 21.379088 38.837548 0.008451 0.000002 -0.000003 -0.000005 1.240486 5.557306 -31.144952 2.582011 4.855303 -55.987211 0.000001 -0.000001 -0.000001 2.334409 7.139408 -41.320196 3.979019 5.544483 -71.309968 -0.000002 -0.000001 -0.000001 2.901205 7.498756 -48.364610 3.974922 5.543103 -71.267560 -0.000004 0.000001 -0.000001 2.416491 7.232798 -41.297134 3.977439 5.543941 -71.293726 0.000000 -0.000002 0.000001 0.000001 0.000000 -0.000001 0.000001 0.000000 -0.000001 0.000001 -0.000000 -0.000001 -0.000002 -0.000002 -0.000000 -0.000002 -0.000003 0.000000 -0.000002 -0.000002 -0.000000 -0.000003 -0.000001 -0.000000 -4.490359 20.422747 -2.985061 -24.488620 29.920924 24.697442 -0.000095 108.890380 0.000095 -59.803162 17.545395 -10.769457 49.906399 33.559083 -17.441812 11.438865 -12.160204 7.798185 0.000002 -0.000000 -0.000001 0.250311 -3.805536 14.945477 2.024348 -3.842898 55.545585 0.000001 -0.000001 -0.000004 1.129150 -5.543741 26.442084 1.145905 -3.061379 41.035339 -0.000001 -0.000000 -0.000000 1.281527 -5.667776 29.825513 1.502476 -3.427656 47.328918 0.000002 0.000002 0.000001 1.254290 -5.499371 26.501079 0.986280 -2.867914 37.949576 -0.000003 -0.000000 -0.000001 0.000001 0.000002 -0.000000 0.000001 0.000000 -0.000001 0.000001 0.000002 0.000000 0.000001 -0.000001 -0.000002 0.000001 0.000000 -0.000001 0.000001 -0.000001 -0.000002 0.000001 -0.000000 -0.000001 0.000001 0.000001 -0.000000 0.000001 0.000001 -0.000000 0.000001 0.000001 -0.000000 0.000001 0.000001 -0.000000 0.000001 0.000001 -0.000000 0.000001 0.000001 -0.000000 0.000001 0.000001 -0.000000 0.000001 -0.000000 0.000000 0.000000 -0.000001 -0.000000 
